<mxfile host="app.diagrams.net" modified="2024-07-18T12:57:50.625Z" agent="Mozilla/5.0 (Windows NT 10.0; Win64; x64) AppleWebKit/537.36 (KHTML, like Gecko) Chrome/126.0.0.0 Safari/537.36" version="24.3.1" etag="q2kqnm-_Ug6Yb0NLbgVf" type="github">
  <diagram name="第 1 页" id="OoIulfcOFKrSGDDf5vxR">
    <mxGraphModel>
      <root>
        <mxCell id="0" />
        <mxCell id="1" parent="0" />
      </root>
    </mxGraphModel>
  </diagram>
</mxfile>
